<svg width="950.0" height="979.422863405996" xmlns="http://www.w3.org/2000/svg">
<polygon points="500.0,546.410161513776 
400.0,546.410161513776 
350.0,459.807621135332 
400.000000000001,373.205080756888 
500.000000000001,373.205080756889 
550.0,459.807621135334 
" style="fill:red;stroke:purple;stroke-width:3" />
<polygon points="500.0,373.205080756888 
400.0,373.205080756888 
350.0,286.602540378444 
400.000000000001,200.0 
500.000000000001,200.000000000001 
550.0,286.602540378446 
" style="fill:pink;stroke:purple;stroke-width:3" />
<polygon points="350.0,459.807621135332 
250.0,459.807621135332 
200.0,373.205080756888 
250.000000000001,286.602540378444 
350.000000000001,286.602540378445 
400.0,373.20508075689 
" style="fill:pink;stroke:purple;stroke-width:3" />
<polygon points="650.0,459.807621135332 
550.0,459.807621135332 
500.0,373.205080756888 
550.000000000001,286.602540378444 
650.000000000001,286.602540378445 
700.0,373.20508075689 
" style="fill:pink;stroke:purple;stroke-width:3" />
<polygon points="500.0,719.615242270664 
400.0,719.615242270664 
350.0,633.01270189222 
400.000000000001,546.410161513776 
500.000000000001,546.410161513777 
550.0,633.012701892222 
" style="fill:pink;stroke:purple;stroke-width:3" />
<polygon points="350.0,633.01270189222 
250.0,633.01270189222 
200.0,546.410161513776 
250.000000000001,459.807621135332 
350.000000000001,459.807621135333 
400.0,546.410161513778 
" style="fill:pink;stroke:purple;stroke-width:3" />
<polygon points="650.0,633.01270189222 
550.0,633.01270189222 
500.0,546.410161513776 
550.000000000001,459.807621135332 
650.000000000001,459.807621135333 
700.0,546.410161513778 
" style="fill:pink;stroke:purple;stroke-width:3" />
</svg>
