<svg width="600" height="600" xmlns="http://www.w3.org/2000/svg">
<polygon points="290.0,317.320508075689 
280.0,317.320508075689 
275.0,308.660254037844 
280.0,300.0 
290.0,300.0 
295.0,308.660254037845 
" style="fill:red;stroke:purple;stroke-width:3" />
<polygon points="305.0,308.660254037844 
295.0,308.660254037844 
290.0,300.0 
295.0,291.339745962156 
305.0,291.339745962156 
310.0,300.0 
" style="fill:pink;stroke:purple;stroke-width:3" />
<polygon points="305.0,291.339745962156 
295.0,291.339745962156 
290.0,282.679491924311 
295.0,274.019237886467 
305.0,274.019237886467 
310.0,282.679491924311 
" style="fill:lime;stroke:purple;stroke-width:3" />
<polygon points="320.0,282.679491924311 
310.0,282.679491924311 
305.0,274.019237886467 
310.0,265.358983848622 
320.0,265.358983848622 
325.0,274.019237886467 
" style="fill:lime;stroke:purple;stroke-width:3" />
<polygon points="320.0,300.0 
310.0,300.0 
305.0,291.339745962156 
310.0,282.679491924311 
320.0,282.679491924311 
325.0,291.339745962156 
" style="fill:lime;stroke:purple;stroke-width:3" />
<polygon points="305.0,291.339745962156 
295.0,291.339745962156 
290.0,282.679491924311 
295.0,274.019237886467 
305.0,274.019237886467 
310.0,282.679491924311 
" style="fill:lime;stroke:purple;stroke-width:3" />
<polygon points="305.0,308.660254037844 
295.0,308.660254037844 
290.0,300.0 
295.0,291.339745962156 
305.0,291.339745962156 
310.0,300.0 
" style="fill:lime;stroke:purple;stroke-width:3" />
<polygon points="305.0,325.980762113533 
295.0,325.980762113533 
290.0,317.320508075689 
295.0,308.660254037844 
305.0,308.660254037845 
310.0,317.320508075689 
" style="fill:lime;stroke:purple;stroke-width:3" />
<polygon points="290.0,334.641016151378 
280.0,334.641016151378 
275.0,325.980762113533 
280.0,317.320508075689 
290.0,317.320508075689 
295.0,325.980762113533 
" style="fill:lime;stroke:purple;stroke-width:3" />
<polygon points="275.0,343.301270189222 
265.0,343.301270189222 
260.0,334.641016151378 
265.0,325.980762113533 
275.0,325.980762113533 
280.0,334.641016151378 
" style="fill:lime;stroke:purple;stroke-width:3" />
<polygon points="260.0,351.961524227067 
250.0,351.961524227066 
245.0,343.301270189222 
250.0,334.641016151378 
260.0,334.641016151378 
265.0,343.301270189222 
" style="fill:lime;stroke:purple;stroke-width:3" />
<polygon points="245.0,360.621778264911 
235.0,360.621778264911 
230.0,351.961524227066 
235.0,343.301270189222 
245.0,343.301270189222 
250.0,351.961524227067 
" style="fill:lime;stroke:purple;stroke-width:3" />
<polygon points="230.0,369.282032302755 
220.0,369.282032302755 
215.0,360.621778264911 
220.0,351.961524227067 
230.0,351.961524227067 
235.0,360.621778264911 
" style="fill:lime;stroke:purple;stroke-width:3" />
<polygon points="215.0,360.621778264911 
205.0,360.621778264911 
200.0,351.961524227066 
205.0,343.301270189222 
215.0,343.301270189222 
220.0,351.961524227067 
" style="fill:lime;stroke:purple;stroke-width:3" />
<polygon points="200.0,351.961524227067 
190.0,351.961524227066 
185.0,343.301270189222 
190.0,334.641016151378 
200.0,334.641016151378 
205.0,343.301270189222 
" style="fill:lime;stroke:purple;stroke-width:3" />
<polygon points="185.0,360.621778264911 
175.0,360.621778264911 
170.0,351.961524227066 
175.0,343.301270189222 
185.0,343.301270189222 
190.0,351.961524227067 
" style="fill:lime;stroke:purple;stroke-width:3" />
<polygon points="170.0,351.961524227067 
160.0,351.961524227066 
155.0,343.301270189222 
160.0,334.641016151378 
170.0,334.641016151378 
175.0,343.301270189222 
" style="fill:lime;stroke:purple;stroke-width:3" />
<polygon points="155.0,343.301270189222 
145.0,343.301270189222 
140.0,334.641016151378 
145.0,325.980762113533 
155.0,325.980762113533 
160.0,334.641016151378 
" style="fill:lime;stroke:purple;stroke-width:3" />
<polygon points="155.0,325.980762113533 
145.0,325.980762113533 
140.0,317.320508075689 
145.0,308.660254037844 
155.0,308.660254037845 
160.0,317.320508075689 
" style="fill:lime;stroke:purple;stroke-width:3" />
<polygon points="140.0,317.320508075689 
130.0,317.320508075689 
125.0,308.660254037844 
130.0,300.0 
140.0,300.0 
145.0,308.660254037845 
" style="fill:lime;stroke:purple;stroke-width:3" />
<polygon points="125.0,308.660254037844 
115.0,308.660254037844 
110.0,300.0 
115.0,291.339745962156 
125.0,291.339745962156 
130.0,300.0 
" style="fill:lime;stroke:purple;stroke-width:3" />
<polygon points="110.0,300.0 
100.0,300.0 
95.0,291.339745962156 
100.0,282.679491924311 
110.0,282.679491924311 
115.0,291.339745962156 
" style="fill:lime;stroke:purple;stroke-width:3" />
<polygon points="95.0,291.339745962156 
85.0,291.339745962156 
80.0,282.679491924311 
85.0000000000001,274.019237886467 
95.0000000000001,274.019237886467 
100.0,282.679491924311 
" style="fill:lime;stroke:purple;stroke-width:3" />
<polygon points="80.0,282.679491924311 
70.0,282.679491924311 
65.0,274.019237886467 
70.0000000000001,265.358983848622 
80.0000000000001,265.358983848622 
85.0,274.019237886467 
" style="fill:lime;stroke:purple;stroke-width:3" />
<polygon points="80.0,300.0 
70.0,300.0 
65.0,291.339745962156 
70.0000000000001,282.679491924311 
80.0000000000001,282.679491924311 
85.0,291.339745962156 
" style="fill:lime;stroke:purple;stroke-width:3" />
<polygon points="80.0,282.679491924311 
70.0,282.679491924311 
65.0,274.019237886467 
70.0000000000001,265.358983848622 
80.0000000000001,265.358983848622 
85.0,274.019237886467 
" style="fill:lime;stroke:purple;stroke-width:3" />
<polygon points="65.0,274.019237886467 
55.0,274.019237886467 
50.0,265.358983848622 
55.0000000000001,256.698729810778 
65.0000000000001,256.698729810778 
70.0,265.358983848622 
" style="fill:lime;stroke:purple;stroke-width:3" />
<polygon points="65.0,291.339745962156 
55.0,291.339745962156 
50.0,282.679491924311 
55.0000000000001,274.019237886467 
65.0000000000001,274.019237886467 
70.0,282.679491924311 
" style="fill:lime;stroke:purple;stroke-width:3" />
<polygon points="65.0,274.019237886467 
55.0,274.019237886467 
50.0,265.358983848622 
55.0000000000001,256.698729810778 
65.0000000000001,256.698729810778 
70.0,265.358983848622 
" style="fill:lime;stroke:purple;stroke-width:3" />
<polygon points="65.0,256.698729810778 
55.0,256.698729810778 
50.0,248.038475772933 
55.0000000000001,239.378221735089 
65.0000000000001,239.378221735089 
70.0,248.038475772934 
" style="fill:lime;stroke:purple;stroke-width:3" />
<polygon points="50.0,248.038475772933 
40.0,248.038475772933 
35.0,239.378221735089 
40.0000000000001,230.717967697245 
50.0000000000001,230.717967697245 
55.0,239.378221735089 
" style="fill:lime;stroke:purple;stroke-width:3" />
<polygon points="50.0,230.717967697245 
40.0,230.717967697245 
35.0,222.0577136594 
40.0000000000001,213.397459621556 
50.0000000000001,213.397459621556 
55.0,222.0577136594 
" style="fill:lime;stroke:purple;stroke-width:3" />
<polygon points="50.0,213.397459621556 
40.0,213.397459621556 
35.0,204.737205583711 
40.0000000000001,196.076951545867 
50.0000000000001,196.076951545867 
55.0,204.737205583711 
" style="fill:lime;stroke:purple;stroke-width:3" />
<polygon points="65.0,222.0577136594 
55.0,222.0577136594 
50.0,213.397459621556 
55.0000000000001,204.737205583711 
65.0000000000001,204.737205583711 
70.0,213.397459621556 
" style="fill:lime;stroke:purple;stroke-width:3" />
<polygon points="65.0,204.737205583711 
55.0,204.737205583711 
50.0,196.076951545867 
55.0000000000001,187.416697508022 
65.0000000000001,187.416697508023 
70.0,196.076951545867 
" style="fill:lime;stroke:purple;stroke-width:3" />
<polygon points="65.0,187.416697508022 
55.0,187.416697508022 
50.0,178.756443470178 
55.0000000000001,170.096189432334 
65.0000000000001,170.096189432334 
70.0,178.756443470178 
" style="fill:lime;stroke:purple;stroke-width:3" />
<polygon points="65.0,170.096189432334 
55.0,170.096189432334 
50.0,161.435935394489 
55.0000000000001,152.775681356645 
65.0000000000001,152.775681356645 
70.0,161.435935394489 
" style="fill:lime;stroke:purple;stroke-width:3" />
<polygon points="65.0,187.416697508022 
55.0,187.416697508022 
50.0,178.756443470178 
55.0000000000001,170.096189432334 
65.0000000000001,170.096189432334 
70.0,178.756443470178 
" style="fill:lime;stroke:purple;stroke-width:3" />
<polygon points="65.0,170.096189432334 
55.0,170.096189432334 
50.0,161.435935394489 
55.0000000000001,152.775681356645 
65.0000000000001,152.775681356645 
70.0,161.435935394489 
" style="fill:lime;stroke:purple;stroke-width:3" />
<polygon points="65.0,152.775681356645 
55.0,152.775681356645 
50.0,144.1154273188 
55.0000000000001,135.455173280956 
65.0000000000001,135.455173280956 
70.0,144.1154273188 
" style="fill:lime;stroke:purple;stroke-width:3" />
<polygon points="65.0,135.455173280956 
55.0,135.455173280956 
50.0,126.794919243111 
55.0000000000001,118.134665205267 
65.0000000000001,118.134665205267 
70.0,126.794919243112 
" style="fill:lime;stroke:purple;stroke-width:3" />
<polygon points="65.0,118.134665205267 
55.0,118.134665205267 
50.0,109.474411167423 
55.0000000000001,100.814157129578 
65.0000000000001,100.814157129578 
70.0,109.474411167423 
" style="fill:lime;stroke:purple;stroke-width:3" />
<polygon points="50.0,126.794919243111 
40.0,126.794919243111 
35.0,118.134665205267 
40.0000000000001,109.474411167423 
50.0000000000001,109.474411167423 
55.0,118.134665205267 
" style="fill:lime;stroke:purple;stroke-width:3" />
<polygon points="65.0,135.455173280956 
55.0,135.455173280956 
50.0,126.794919243111 
55.0000000000001,118.134665205267 
65.0000000000001,118.134665205267 
70.0,126.794919243112 
" style="fill:lime;stroke:purple;stroke-width:3" />
<polygon points="65.0,118.134665205267 
55.0,118.134665205267 
50.0,109.474411167423 
55.0000000000001,100.814157129578 
65.0000000000001,100.814157129578 
70.0,109.474411167423 
" style="fill:lime;stroke:purple;stroke-width:3" />
<polygon points="65.0,100.814157129578 
55.0,100.814157129578 
50.0,92.1539030917337 
55.0000000000001,83.4936490538894 
65.0000000000001,83.4936490538895 
70.0,92.153903091734 
" style="fill:lime;stroke:purple;stroke-width:3" />
<polygon points="80.0,92.1539030917338 
70.0,92.1539030917338 
65.0,83.4936490538893 
70.0000000000001,74.833395016045 
80.0000000000001,74.8333950160451 
85.0,83.4936490538895 
" style="fill:lime;stroke:purple;stroke-width:3" />
<polygon points="80.0,109.474411167423 
70.0,109.474411167423 
65.0,100.814157129578 
70.0000000000001,92.1539030917338 
80.0000000000001,92.1539030917339 
85.0,100.814157129578 
" style="fill:lime;stroke:purple;stroke-width:3" />
<polygon points="95.0,100.814157129578 
85.0,100.814157129578 
80.0,92.1539030917337 
85.0000000000001,83.4936490538894 
95.0000000000001,83.4936490538895 
100.0,92.153903091734 
" style="fill:lime;stroke:purple;stroke-width:3" />
<polygon points="110.0,92.1539030917338 
100.0,92.1539030917338 
95.0,83.4936490538893 
100.0,74.833395016045 
110.0,74.8333950160451 
115.0,83.4936490538895 
" style="fill:lime;stroke:purple;stroke-width:3" />
<polygon points="95.0,83.4936490538894 
85.0,83.4936490538893 
80.0,74.8333950160449 
85.0000000000001,66.1731409782005 
95.0000000000001,66.1731409782006 
100.0,74.8333950160451 
" style="fill:lime;stroke:purple;stroke-width:3" />
<polygon points="110.0,74.8333950160449 
100.0,74.8333950160449 
95.0,66.1731409782005 
100.0,57.5128869403561 
110.0,57.5128869403562 
115.0,66.1731409782007 
" style="fill:lime;stroke:purple;stroke-width:3" />
<polygon points="110.0,57.5128869403561 
100.0,57.512886940356 
95.0,48.8526329025116 
100.0,40.1923788646673 
110.0,40.1923788646674 
115.0,48.8526329025118 
" style="fill:lime;stroke:purple;stroke-width:3" />
<polygon points="125.0,48.8526329025117 
115.0,48.8526329025116 
110.0,40.1923788646672 
115.0,31.5321248268228 
125.0,31.5321248268229 
130.0,40.1923788646674 
" style="fill:lime;stroke:purple;stroke-width:3" />
<polygon points="140.0,40.1923788646672 
130.0,40.1923788646672 
125.0,31.5321248268228 
130.0,22.8718707889784 
140.0,22.8718707889785 
145.0,31.532124826823 
" style="fill:lime;stroke:purple;stroke-width:3" />
<polygon points="155.0,31.5321248268228 
145.0,31.5321248268228 
140.0,22.8718707889783 
145.0,14.211616751134 
155.0,14.2116167511341 
160.0,22.8718707889786 
" style="fill:lime;stroke:purple;stroke-width:3" />
<polygon points="170.0,22.8718707889784 
160.0,22.8718707889783 
155.0,14.2116167511339 
160.0,5.55136271328956 
170.0,5.55136271328966 
175.0,14.2116167511341 
" style="fill:lime;stroke:purple;stroke-width:3" />
<polygon points="185.0,14.211616751134 
175.0,14.2116167511339 
170.0,5.55136271328949 
175.0,-3.10889132455487 
185.0,-3.10889132455477 
190.0,5.5513627132897 
" style="fill:lime;stroke:purple;stroke-width:3" />
<polygon points="185.0,31.5321248268228 
175.0,31.5321248268228 
170.0,22.8718707889783 
175.0,14.211616751134 
185.0,14.2116167511341 
190.0,22.8718707889786 
" style="fill:lime;stroke:purple;stroke-width:3" />
<polygon points="200.0,22.8718707889784 
190.0,22.8718707889783 
185.0,14.2116167511339 
190.0,5.55136271328956 
200.0,5.55136271328966 
205.0,14.2116167511341 
" style="fill:lime;stroke:purple;stroke-width:3" />
<polygon points="215.0,14.211616751134 
205.0,14.2116167511339 
200.0,5.55136271328949 
205.0,-3.10889132455487 
215.0,-3.10889132455477 
220.0,5.5513627132897 
" style="fill:lime;stroke:purple;stroke-width:3" />
<polygon points="215.0,31.5321248268228 
205.0,31.5321248268228 
200.0,22.8718707889783 
205.0,14.211616751134 
215.0,14.2116167511341 
220.0,22.8718707889786 
" style="fill:lime;stroke:purple;stroke-width:3" />
<polygon points="230.0,40.1923788646672 
220.0,40.1923788646672 
215.0,31.5321248268228 
220.0,22.8718707889784 
230.0,22.8718707889785 
235.0,31.532124826823 
" style="fill:lime;stroke:purple;stroke-width:3" />
<polygon points="245.0,31.5321248268228 
235.0,31.5321248268228 
230.0,22.8718707889783 
235.0,14.211616751134 
245.0,14.2116167511341 
250.0,22.8718707889786 
" style="fill:lime;stroke:purple;stroke-width:3" />
<polygon points="260.0,22.8718707889784 
250.0,22.8718707889783 
245.0,14.2116167511339 
250.0,5.55136271328956 
260.0,5.55136271328966 
265.0,14.2116167511341 
" style="fill:lime;stroke:purple;stroke-width:3" />
<polygon points="275.0,14.211616751134 
265.0,14.2116167511339 
260.0,5.55136271328949 
265.0,-3.10889132455487 
275.0,-3.10889132455477 
280.0,5.5513627132897 
" style="fill:lime;stroke:purple;stroke-width:3" />
<polygon points="290.0,5.55136271328954 
280.0,5.5513627132895 
275.0,-3.10889132455493 
280.0,-11.7691453623993 
290.0,-11.7691453623992 
295.0,-3.10889132455472 
" style="fill:lime;stroke:purple;stroke-width:3" />
<polygon points="305.0,-3.10889132455489 
295.0,-3.10889132455492 
290.0,-11.7691453623994 
295.0,-20.4293994002437 
305.0,-20.4293994002436 
310.0,-11.7691453623991 
" style="fill:lime;stroke:purple;stroke-width:3" />
<polygon points="290.0,-11.7691453623993 
280.0,-11.7691453623993 
275.0,-20.4293994002438 
280.0,-29.0896534380881 
290.0,-29.089653438088 
295.0,-20.4293994002436 
" style="fill:lime;stroke:purple;stroke-width:3" />
<polygon points="305.0,-20.4293994002437 
295.0,-20.4293994002438 
290.0,-29.0896534380882 
295.0,-37.7499074759326 
305.0,-37.7499074759325 
310.0,-29.089653438088 
" style="fill:lime;stroke:purple;stroke-width:3" />
<polygon points="320.0,-11.7691453623993 
310.0,-11.7691453623993 
305.0,-20.4293994002438 
310.0,-29.0896534380881 
320.0,-29.089653438088 
325.0,-20.4293994002436 
" style="fill:lime;stroke:purple;stroke-width:3" />
<polygon points="335.0,-20.4293994002437 
325.0,-20.4293994002438 
320.0,-29.0896534380882 
325.0,-37.7499074759326 
335.0,-37.7499074759325 
340.0,-29.089653438088 
" style="fill:lime;stroke:purple;stroke-width:3" />
<polygon points="350.0,-29.0896534380882 
340.0,-29.0896534380882 
335.0,-37.7499074759326 
340.0,-46.410161513777 
350.0,-46.4101615137769 
355.0,-37.7499074759324 
" style="fill:lime;stroke:purple;stroke-width:3" />
<polygon points="350.0,-46.410161513777 
340.0,-46.410161513777 
335.0,-55.0704155516215 
340.0,-63.7306695894658 
350.0,-63.7306695894657 
355.0,-55.0704155516213 
" style="fill:lime;stroke:purple;stroke-width:3" />
<polygon points="365.0,-55.0704155516214 
355.0,-55.0704155516215 
350.0,-63.7306695894659 
355.0,-72.3909236273103 
365.0,-72.3909236273102 
370.0,-63.7306695894657 
" style="fill:lime;stroke:purple;stroke-width:3" />
<polygon points="380.0,-63.7306695894659 
370.0,-63.7306695894659 
365.0,-72.3909236273103 
370.0,-81.0511776651547 
380.0,-81.0511776651546 
385.0,-72.3909236273101 
" style="fill:lime;stroke:purple;stroke-width:3" />
<polygon points="395.0,-55.0704155516214 
385.0,-55.0704155516215 
380.0,-63.7306695894659 
385.0,-72.3909236273103 
395.0,-72.3909236273102 
400.0,-63.7306695894657 
" style="fill:lime;stroke:purple;stroke-width:3" />
<polygon points="410.0,-63.7306695894659 
400.0,-63.7306695894659 
395.0,-72.3909236273103 
400.0,-81.0511776651547 
410.0,-81.0511776651546 
415.0,-72.3909236273101 
" style="fill:lime;stroke:purple;stroke-width:3" />
<polygon points="425.0,-72.3909236273103 
415.0,-72.3909236273103 
410.0,-81.0511776651548 
415.0,-89.7114317029991 
425.0,-89.711431702999 
430.0,-81.0511776651545 
" style="fill:lime;stroke:purple;stroke-width:3" />
<polygon points="440.0,-63.7306695894659 
430.0,-63.7306695894659 
425.0,-72.3909236273103 
430.0,-81.0511776651547 
440.0,-81.0511776651546 
445.0,-72.3909236273101 
" style="fill:lime;stroke:purple;stroke-width:3" />
<polygon points="455.0,-55.0704155516214 
445.0,-55.0704155516215 
440.0,-63.7306695894659 
445.0,-72.3909236273103 
455.0,-72.3909236273102 
460.0,-63.7306695894657 
" style="fill:lime;stroke:purple;stroke-width:3" />
<polygon points="470.0,-46.410161513777 
460.0,-46.410161513777 
455.0,-55.0704155516215 
460.0,-63.7306695894658 
470.0,-63.7306695894657 
475.0,-55.0704155516213 
" style="fill:lime;stroke:purple;stroke-width:3" />
<polygon points="485.0,-37.7499074759326 
475.0,-37.7499074759326 
470.0,-46.4101615137771 
475.0,-55.0704155516214 
485.0,-55.0704155516213 
490.0,-46.4101615137768 
" style="fill:lime;stroke:purple;stroke-width:3" />
<polygon points="500.0,-29.0896534380882 
490.0,-29.0896534380882 
485.0,-37.7499074759326 
490.0,-46.410161513777 
500.0,-46.4101615137769 
505.0,-37.7499074759324 
" style="fill:lime;stroke:purple;stroke-width:3" />
<polygon points="500.0,-46.410161513777 
490.0,-46.410161513777 
485.0,-55.0704155516215 
490.0,-63.7306695894658 
500.0,-63.7306695894657 
505.0,-55.0704155516213 
" style="fill:lime;stroke:purple;stroke-width:3" />
<polygon points="515.0,-37.7499074759326 
505.0,-37.7499074759326 
500.0,-46.4101615137771 
505.0,-55.0704155516214 
515.0,-55.0704155516213 
520.0,-46.4101615137768 
" style="fill:lime;stroke:purple;stroke-width:3" />
<polygon points="530.0,-46.410161513777 
520.0,-46.410161513777 
515.0,-55.0704155516215 
520.0,-63.7306695894658 
530.0,-63.7306695894657 
535.0,-55.0704155516213 
" style="fill:lime;stroke:purple;stroke-width:3" />
<polygon points="545.0,-37.7499074759326 
535.0,-37.7499074759326 
530.0,-46.4101615137771 
535.0,-55.0704155516214 
545.0,-55.0704155516213 
550.0,-46.4101615137768 
" style="fill:lime;stroke:purple;stroke-width:3" />
<polygon points="560.0,-29.0896534380882 
550.0,-29.0896534380882 
545.0,-37.7499074759326 
550.0,-46.410161513777 
560.0,-46.4101615137769 
565.0,-37.7499074759324 
" style="fill:lime;stroke:purple;stroke-width:3" />
<polygon points="575.0,-37.7499074759326 
565.0,-37.7499074759326 
560.0,-46.4101615137771 
565.0,-55.0704155516214 
575.0,-55.0704155516213 
580.0,-46.4101615137768 
" style="fill:lime;stroke:purple;stroke-width:3" />
<polygon points="590.0,-46.410161513777 
580.0,-46.410161513777 
575.0,-55.0704155516215 
580.0,-63.7306695894658 
590.0,-63.7306695894657 
595.0,-55.0704155516213 
" style="fill:lime;stroke:purple;stroke-width:3" />
<polygon points="605.0,-37.7499074759326 
595.0,-37.7499074759326 
590.0,-46.4101615137771 
595.0,-55.0704155516214 
605.0,-55.0704155516213 
610.0,-46.4101615137768 
" style="fill:lime;stroke:purple;stroke-width:3" />
<polygon points="590.0,-29.0896534380882 
580.0,-29.0896534380882 
575.0,-37.7499074759326 
580.0,-46.410161513777 
590.0,-46.4101615137769 
595.0,-37.7499074759324 
" style="fill:lime;stroke:purple;stroke-width:3" />
<polygon points="575.0,-20.4293994002437 
565.0,-20.4293994002438 
560.0,-29.0896534380882 
565.0,-37.7499074759326 
575.0,-37.7499074759325 
580.0,-29.089653438088 
" style="fill:lime;stroke:purple;stroke-width:3" />
<polygon points="590.0,-11.7691453623993 
580.0,-11.7691453623993 
575.0,-20.4293994002438 
580.0,-29.0896534380881 
590.0,-29.089653438088 
595.0,-20.4293994002436 
" style="fill:lime;stroke:purple;stroke-width:3" />
<polygon points="605.0,-3.10889132455489 
595.0,-3.10889132455492 
590.0,-11.7691453623994 
595.0,-20.4293994002437 
605.0,-20.4293994002436 
610.0,-11.7691453623991 
" style="fill:lime;stroke:purple;stroke-width:3" />
<polygon points="605.0,14.211616751134 
595.0,14.2116167511339 
590.0,5.55136271328949 
595.0,-3.10889132455487 
605.0,-3.10889132455477 
610.0,5.5513627132897 
" style="fill:lime;stroke:purple;stroke-width:3" />
<polygon points="590.0,22.8718707889784 
580.0,22.8718707889783 
575.0,14.2116167511339 
580.0,5.55136271328956 
590.0,5.55136271328966 
595.0,14.2116167511341 
" style="fill:lime;stroke:purple;stroke-width:3" />
<polygon points="605.0,31.5321248268228 
595.0,31.5321248268228 
590.0,22.8718707889783 
595.0,14.211616751134 
605.0,14.2116167511341 
610.0,22.8718707889786 
" style="fill:lime;stroke:purple;stroke-width:3" />
<polygon points="620.0,40.1923788646672 
610.0,40.1923788646672 
605.0,31.5321248268228 
610.0,22.8718707889784 
620.0,22.8718707889785 
625.0,31.532124826823 
" style="fill:lime;stroke:purple;stroke-width:3" />
<polygon points="635.0,48.8526329025117 
625.0,48.8526329025116 
620.0,40.1923788646672 
625.0,31.5321248268228 
635.0,31.5321248268229 
640.0,40.1923788646674 
" style="fill:lime;stroke:purple;stroke-width:3" />
<polygon points="635.0,66.1731409782005 
625.0,66.1731409782005 
620.0,57.512886940356 
625.0,48.8526329025117 
635.0,48.8526329025118 
640.0,57.5128869403563 
" style="fill:lime;stroke:purple;stroke-width:3" />
<polygon points="635.0,48.8526329025117 
625.0,48.8526329025116 
620.0,40.1923788646672 
625.0,31.5321248268228 
635.0,31.5321248268229 
640.0,40.1923788646674 
" style="fill:lime;stroke:purple;stroke-width:3" />
<polygon points="650.0,57.5128869403561 
640.0,57.512886940356 
635.0,48.8526329025116 
640.0,40.1923788646673 
650.0,40.1923788646674 
655.0,48.8526329025118 
" style="fill:lime;stroke:purple;stroke-width:3" />
<polygon points="665.0,66.1731409782005 
655.0,66.1731409782005 
650.0,57.512886940356 
655.0,48.8526329025117 
665.0,48.8526329025118 
670.0,57.5128869403563 
" style="fill:lime;stroke:purple;stroke-width:3" />
<polygon points="665.0,83.4936490538894 
655.0,83.4936490538893 
650.0,74.8333950160449 
655.0,66.1731409782005 
665.0,66.1731409782006 
670.0,74.8333950160451 
" style="fill:lime;stroke:purple;stroke-width:3" />
<polygon points="680.0,92.1539030917338 
670.0,92.1539030917338 
665.0,83.4936490538893 
670.0,74.833395016045 
680.0,74.8333950160451 
685.0,83.4936490538895 
" style="fill:lime;stroke:purple;stroke-width:3" />
<polygon points="680.0,109.474411167423 
670.0,109.474411167423 
665.0,100.814157129578 
670.0,92.1539030917338 
680.0,92.1539030917339 
685.0,100.814157129578 
" style="fill:lime;stroke:purple;stroke-width:3" />
<polygon points="695.0,118.134665205267 
685.0,118.134665205267 
680.0,109.474411167423 
685.0,100.814157129578 
695.0,100.814157129578 
700.0,109.474411167423 
" style="fill:lime;stroke:purple;stroke-width:3" />
<polygon points="710.0,126.794919243111 
700.0,126.794919243111 
695.0,118.134665205267 
700.0,109.474411167423 
710.0,109.474411167423 
715.0,118.134665205267 
" style="fill:lime;stroke:purple;stroke-width:3" />
<polygon points="725.0,135.455173280956 
715.0,135.455173280956 
710.0,126.794919243111 
715.0,118.134665205267 
725.0,118.134665205267 
730.0,126.794919243112 
" style="fill:lime;stroke:purple;stroke-width:3" />
<polygon points="740.0,144.1154273188 
730.0,144.1154273188 
725.0,135.455173280956 
730.0,126.794919243112 
740.0,126.794919243112 
745.0,135.455173280956 
" style="fill:lime;stroke:purple;stroke-width:3" />
<polygon points="755.0,152.775681356645 
745.0,152.775681356645 
740.0,144.1154273188 
745.0,135.455173280956 
755.0,135.455173280956 
760.0,144.1154273188 
" style="fill:lime;stroke:purple;stroke-width:3" />
<polygon points="770.0,161.435935394489 
760.0,161.435935394489 
755.0,152.775681356645 
760.0,144.1154273188 
770.0,144.1154273188 
775.0,152.775681356645 
" style="fill:lime;stroke:purple;stroke-width:3" />
<polygon points="770.0,144.1154273188 
760.0,144.1154273188 
755.0,135.455173280956 
760.0,126.794919243112 
770.0,126.794919243112 
775.0,135.455173280956 
" style="fill:lime;stroke:purple;stroke-width:3" />
<polygon points="770.0,161.435935394489 
760.0,161.435935394489 
755.0,152.775681356645 
760.0,144.1154273188 
770.0,144.1154273188 
775.0,152.775681356645 
" style="fill:lime;stroke:purple;stroke-width:3" />
<polygon points="770.0,178.756443470178 
760.0,178.756443470178 
755.0,170.096189432334 
760.0,161.435935394489 
770.0,161.435935394489 
775.0,170.096189432334 
" style="fill:lime;stroke:purple;stroke-width:3" />
<polygon points="755.0,170.096189432334 
745.0,170.096189432334 
740.0,161.435935394489 
745.0,152.775681356645 
755.0,152.775681356645 
760.0,161.435935394489 
" style="fill:lime;stroke:purple;stroke-width:3" />
<polygon points="770.0,178.756443470178 
760.0,178.756443470178 
755.0,170.096189432334 
760.0,161.435935394489 
770.0,161.435935394489 
775.0,170.096189432334 
" style="fill:lime;stroke:purple;stroke-width:3" />
<polygon points="770.0,196.076951545867 
760.0,196.076951545867 
755.0,187.416697508022 
760.0,178.756443470178 
770.0,178.756443470178 
775.0,187.416697508023 
" style="fill:lime;stroke:purple;stroke-width:3" />
<polygon points="770.0,213.397459621556 
760.0,213.397459621556 
755.0,204.737205583711 
760.0,196.076951545867 
770.0,196.076951545867 
775.0,204.737205583711 
" style="fill:lime;stroke:purple;stroke-width:3" />
<polygon points="755.0,204.737205583711 
745.0,204.737205583711 
740.0,196.076951545867 
745.0,187.416697508022 
755.0,187.416697508023 
760.0,196.076951545867 
" style="fill:lime;stroke:purple;stroke-width:3" />
<polygon points="755.0,222.0577136594 
745.0,222.0577136594 
740.0,213.397459621556 
745.0,204.737205583711 
755.0,204.737205583711 
760.0,213.397459621556 
" style="fill:lime;stroke:purple;stroke-width:3" />
<polygon points="770.0,230.717967697245 
760.0,230.717967697245 
755.0,222.0577136594 
760.0,213.397459621556 
770.0,213.397459621556 
775.0,222.0577136594 
" style="fill:lime;stroke:purple;stroke-width:3" />
<polygon points="785.0,239.378221735089 
775.0,239.378221735089 
770.0,230.717967697245 
775.0,222.0577136594 
785.0,222.0577136594 
790.0,230.717967697245 
" style="fill:lime;stroke:purple;stroke-width:3" />
<polygon points="785.0,256.698729810778 
775.0,256.698729810778 
770.0,248.038475772933 
775.0,239.378221735089 
785.0,239.378221735089 
790.0,248.038475772934 
" style="fill:lime;stroke:purple;stroke-width:3" />
<polygon points="785.0,274.019237886467 
775.0,274.019237886467 
770.0,265.358983848622 
775.0,256.698729810778 
785.0,256.698729810778 
790.0,265.358983848622 
" style="fill:lime;stroke:purple;stroke-width:3" />
<polygon points="785.0,291.339745962156 
775.0,291.339745962156 
770.0,282.679491924311 
775.0,274.019237886467 
785.0,274.019237886467 
790.0,282.679491924311 
" style="fill:lime;stroke:purple;stroke-width:3" />
<polygon points="770.0,300.0 
760.0,300.0 
755.0,291.339745962156 
760.0,282.679491924311 
770.0,282.679491924311 
775.0,291.339745962156 
" style="fill:lime;stroke:purple;stroke-width:3" />
<polygon points="770.0,317.320508075689 
760.0,317.320508075689 
755.0,308.660254037844 
760.0,300.0 
770.0,300.0 
775.0,308.660254037845 
" style="fill:lime;stroke:purple;stroke-width:3" />
<polygon points="770.0,334.641016151378 
760.0,334.641016151378 
755.0,325.980762113533 
760.0,317.320508075689 
770.0,317.320508075689 
775.0,325.980762113533 
" style="fill:lime;stroke:purple;stroke-width:3" />
<polygon points="785.0,343.301270189222 
775.0,343.301270189222 
770.0,334.641016151378 
775.0,325.980762113533 
785.0,325.980762113533 
790.0,334.641016151378 
" style="fill:lime;stroke:purple;stroke-width:3" />
<polygon points="785.0,325.980762113533 
775.0,325.980762113533 
770.0,317.320508075689 
775.0,308.660254037844 
785.0,308.660254037845 
790.0,317.320508075689 
" style="fill:lime;stroke:purple;stroke-width:3" />
<polygon points="800.0,317.320508075689 
790.0,317.320508075689 
785.0,308.660254037844 
790.0,300.0 
800.0,300.0 
805.0,308.660254037845 
" style="fill:lime;stroke:purple;stroke-width:3" />
<polygon points="800.0,334.641016151378 
790.0,334.641016151378 
785.0,325.980762113533 
790.0,317.320508075689 
800.0,317.320508075689 
805.0,325.980762113533 
" style="fill:lime;stroke:purple;stroke-width:3" />
<polygon points="800.0,351.961524227067 
790.0,351.961524227066 
785.0,343.301270189222 
790.0,334.641016151378 
800.0,334.641016151378 
805.0,343.301270189222 
" style="fill:lime;stroke:purple;stroke-width:3" />
<polygon points="800.0,369.282032302755 
790.0,369.282032302755 
785.0,360.621778264911 
790.0,351.961524227067 
800.0,351.961524227067 
805.0,360.621778264911 
" style="fill:lime;stroke:purple;stroke-width:3" />
<polygon points="800.0,386.602540378444 
790.0,386.602540378444 
785.0,377.9422863406 
790.0,369.282032302755 
800.0,369.282032302756 
805.0,377.9422863406 
" style="fill:lime;stroke:purple;stroke-width:3" />
<polygon points="800.0,403.923048454133 
790.0,403.923048454133 
785.0,395.262794416289 
790.0,386.602540378444 
800.0,386.602540378444 
805.0,395.262794416289 
" style="fill:lime;stroke:purple;stroke-width:3" />
<polygon points="800.0,421.243556529822 
790.0,421.243556529822 
785.0,412.583302491977 
790.0,403.923048454133 
800.0,403.923048454133 
805.0,412.583302491978 
" style="fill:lime;stroke:purple;stroke-width:3" />
<polygon points="785.0,412.583302491978 
775.0,412.583302491977 
770.0,403.923048454133 
775.0,395.262794416289 
785.0,395.262794416289 
790.0,403.923048454133 
" style="fill:lime;stroke:purple;stroke-width:3" />
<polygon points="785.0,429.903810567666 
775.0,429.903810567666 
770.0,421.243556529822 
775.0,412.583302491978 
785.0,412.583302491978 
790.0,421.243556529822 
" style="fill:lime;stroke:purple;stroke-width:3" />
<polygon points="785.0,412.583302491978 
775.0,412.583302491977 
770.0,403.923048454133 
775.0,395.262794416289 
785.0,395.262794416289 
790.0,403.923048454133 
" style="fill:lime;stroke:purple;stroke-width:3" />
<polygon points="785.0,429.903810567666 
775.0,429.903810567666 
770.0,421.243556529822 
775.0,412.583302491978 
785.0,412.583302491978 
790.0,421.243556529822 
" style="fill:lime;stroke:purple;stroke-width:3" />
<polygon points="785.0,412.583302491978 
775.0,412.583302491977 
770.0,403.923048454133 
775.0,395.262794416289 
785.0,395.262794416289 
790.0,403.923048454133 
" style="fill:lime;stroke:purple;stroke-width:3" />
<polygon points="800.0,421.243556529822 
790.0,421.243556529822 
785.0,412.583302491977 
790.0,403.923048454133 
800.0,403.923048454133 
805.0,412.583302491978 
" style="fill:lime;stroke:purple;stroke-width:3" />
<polygon points="800.0,438.564064605511 
790.0,438.564064605511 
785.0,429.903810567666 
790.0,421.243556529822 
800.0,421.243556529822 
805.0,429.903810567666 
" style="fill:lime;stroke:purple;stroke-width:3" />
<polygon points="800.0,455.8845726812 
790.0,455.8845726812 
785.0,447.224318643355 
790.0,438.564064605511 
800.0,438.564064605511 
805.0,447.224318643355 
" style="fill:lime;stroke:purple;stroke-width:3" />
<polygon points="785.0,464.544826719044 
775.0,464.544826719044 
770.0,455.8845726812 
775.0,447.224318643355 
785.0,447.224318643355 
790.0,455.8845726812 
" style="fill:lime;stroke:purple;stroke-width:3" />
<polygon points="785.0,481.865334794733 
775.0,481.865334794733 
770.0,473.205080756888 
775.0,464.544826719044 
785.0,464.544826719044 
790.0,473.205080756889 
" style="fill:lime;stroke:purple;stroke-width:3" />
<polygon points="800.0,473.205080756888 
790.0,473.205080756888 
785.0,464.544826719044 
790.0,455.8845726812 
800.0,455.8845726812 
805.0,464.544826719044 
" style="fill:lime;stroke:purple;stroke-width:3" />
<polygon points="800.0,490.525588832577 
790.0,490.525588832577 
785.0,481.865334794733 
790.0,473.205080756888 
800.0,473.205080756889 
805.0,481.865334794733 
" style="fill:lime;stroke:purple;stroke-width:3" />
<polygon points="800.0,507.846096908266 
790.0,507.846096908266 
785.0,499.185842870422 
790.0,490.525588832577 
800.0,490.525588832577 
805.0,499.185842870422 
" style="fill:lime;stroke:purple;stroke-width:3" />
<polygon points="800.0,525.166604983955 
790.0,525.166604983955 
785.0,516.506350946111 
790.0,507.846096908266 
800.0,507.846096908266 
805.0,516.506350946111 
" style="fill:lime;stroke:purple;stroke-width:3" />
<polygon points="800.0,542.487113059644 
790.0,542.487113059644 
785.0,533.826859021799 
790.0,525.166604983955 
800.0,525.166604983955 
805.0,533.8268590218 
" style="fill:lime;stroke:purple;stroke-width:3" />
<polygon points="800.0,559.807621135333 
790.0,559.807621135333 
785.0,551.147367097488 
790.0,542.487113059644 
800.0,542.487113059644 
805.0,551.147367097488 
" style="fill:lime;stroke:purple;stroke-width:3" />
<polygon points="785.0,551.147367097488 
775.0,551.147367097488 
770.0,542.487113059644 
775.0,533.826859021799 
785.0,533.8268590218 
790.0,542.487113059644 
" style="fill:lime;stroke:purple;stroke-width:3" />
<polygon points="800.0,542.487113059644 
790.0,542.487113059644 
785.0,533.826859021799 
790.0,525.166604983955 
800.0,525.166604983955 
805.0,533.8268590218 
" style="fill:lime;stroke:purple;stroke-width:3" />
<polygon points="800.0,559.807621135333 
790.0,559.807621135333 
785.0,551.147367097488 
790.0,542.487113059644 
800.0,542.487113059644 
805.0,551.147367097488 
" style="fill:lime;stroke:purple;stroke-width:3" />
<polygon points="800.0,577.128129211022 
790.0,577.128129211021 
785.0,568.467875173177 
790.0,559.807621135333 
800.0,559.807621135333 
805.0,568.467875173177 
" style="fill:lime;stroke:purple;stroke-width:3" />
<polygon points="785.0,585.788383248866 
775.0,585.788383248866 
770.0,577.128129211021 
775.0,568.467875173177 
785.0,568.467875173177 
790.0,577.128129211022 
" style="fill:lime;stroke:purple;stroke-width:3" />
<polygon points="785.0,603.108891324555 
775.0,603.108891324555 
770.0,594.44863728671 
775.0,585.788383248866 
785.0,585.788383248866 
790.0,594.448637286711 
" style="fill:lime;stroke:purple;stroke-width:3" />
<polygon points="785.0,620.429399400244 
775.0,620.429399400244 
770.0,611.769145362399 
775.0,603.108891324555 
785.0,603.108891324555 
790.0,611.769145362399 
" style="fill:lime;stroke:purple;stroke-width:3" />
<polygon points="785.0,637.749907475933 
775.0,637.749907475932 
770.0,629.089653438088 
775.0,620.429399400244 
785.0,620.429399400244 
790.0,629.089653438088 
" style="fill:lime;stroke:purple;stroke-width:3" />
<polygon points="785.0,655.070415551621 
775.0,655.070415551621 
770.0,646.410161513777 
775.0,637.749907475933 
785.0,637.749907475933 
790.0,646.410161513777 
" style="fill:lime;stroke:purple;stroke-width:3" />
<polygon points="800.0,646.410161513777 
790.0,646.410161513777 
785.0,637.749907475932 
790.0,629.089653438088 
800.0,629.089653438088 
805.0,637.749907475933 
" style="fill:lime;stroke:purple;stroke-width:3" />
<polygon points="785.0,637.749907475933 
775.0,637.749907475932 
770.0,629.089653438088 
775.0,620.429399400244 
785.0,620.429399400244 
790.0,629.089653438088 
" style="fill:lime;stroke:purple;stroke-width:3" />
<polygon points="785.0,655.070415551621 
775.0,655.070415551621 
770.0,646.410161513777 
775.0,637.749907475933 
785.0,637.749907475933 
790.0,646.410161513777 
" style="fill:lime;stroke:purple;stroke-width:3" />
</svg>
